<?xml version="1.0" standalone="no"?>
<!DOCTYPE svg PUBLIC "-//W3C//DTD SVG 20010904//EN"
 "http://www.w3.org/TR/2001/REC-SVG-20010904/DTD/svg10.dtd">
<svg version="1.0" xmlns="http://www.w3.org/2000/svg"
 width="700.000000pt" height="700.000000pt" viewBox="0 0 700.000000 700.000000"
 preserveAspectRatio="xMidYMid meet">
<metadata>
Created by potrace 1.14, written by Peter Selinger 2001-2017
</metadata>
<g transform="translate(0.000000,700.000000) scale(0.100000,-0.100000)"
fill="#000000" stroke="none">
<path d="M1908 5719 l-1518 -1281 103 -82 c56 -45 756 -601 1554 -1235 l1453
-1152 2 -658 3 -658 295 234 c162 129 504 400 760 603 256 203 735 583 1065
845 330 262 687 545 792 628 l193 152 0 653 c0 358 1 655 3 659 1 6 -3181
2575 -3187 2573 -1 -1 -684 -577 -1518 -1281z m677 -414 c291 -15 703 -65 953
-115 321 -64 557 -154 673 -259 117 -105 221 -273 270 -436 29 -97 37 -300 16
-410 -68 -359 -345 -637 -707 -711 -111 -22 -301 -15 -410 16 -178 50 -346
161 -447 295 -134 177 -293 560 -428 1030 -54 190 -145 555 -145 585 0 20 4
21 58 16 31 -3 107 -8 167 -11z"/>
</g>
</svg>
